<svg width="24" height="24" viewBox="0 0 24 24" fill="none" xmlns="http://www.w3.org/2000/svg">
<g id="Social media logo">
<g id="Vector">
<path d="M6.55166 8.41985C7.53351 8.41985 8.32946 7.62391 8.32946 6.64206C8.32946 5.6602 7.53351 4.86426 6.55166 4.86426C5.56981 4.86426 4.77386 5.6602 4.77386 6.64206C4.77386 7.62391 5.56981 8.41985 6.55166 8.41985Z" fill="#F2EFE6"/>
<path d="M9.95762 9.73371H12.904V11.0835C12.904 11.0835 13.7035 9.48438 15.879 9.48438C17.8196 9.48438 19.4271 10.4404 19.4271 13.3543V19.4988H16.3738V14.0988C16.3738 12.3799 15.4561 12.1908 14.7569 12.1908C13.3056 12.1908 13.0571 13.4426 13.0571 14.323V19.4988H9.95762V9.73371Z" fill="#F2EFE6"/>
<path d="M5.00191 9.73367H8.10142V19.4988H5.00191V9.73367Z" fill="#F2EFE6"/>
</g>
</g>
</svg>
