<svg width="20" height="20" viewBox="0 0 20 20" fill="none" xmlns="http://www.w3.org/2000/svg">
<rect width="20" height="20" rx="2" fill="#627089"/>
<mask id="mask0_3_723" style="mask-type:alpha" maskUnits="userSpaceOnUse" x="3" y="4" width="14" height="12">
<path d="M7.32922 13.2292L4.43755 10.3376C4.28186 10.1815 4.07048 10.0938 3.85005 10.0938C3.62962 10.0938 3.41824 10.1815 3.26255 10.3376C2.93755 10.6626 2.93755 11.1876 3.26255 11.5126L6.74588 14.9959C7.07088 15.3209 7.59588 15.3209 7.92088 14.9959L16.7375 6.17924C17.0625 5.85424 17.0625 5.32924 16.7375 5.00424C16.5819 4.84819 16.3705 4.7605 16.15 4.7605C15.9296 4.7605 15.7182 4.84819 15.5625 5.00424L7.32922 13.2292Z" fill="black"/>
</mask>
<g mask="url(#mask0_3_723)">
<rect width="20" height="20" fill="white"/>
</g>
</svg>
