<svg width="33" height="36" viewBox="0 0 33 36" fill="none" xmlns="http://www.w3.org/2000/svg">
<path d="M27.4 3.6001H8.19995V26.8001H27.4V3.6001Z" fill="white"/>
<path d="M28 27.3H7.59998V3H28V27.3ZM8.69998 26.2H26.8V4.2H8.69998V26.2Z" fill="#02274C"/>
<path d="M23.8 7.1001H4.59998V30.3001H23.8V7.1001Z" fill="#72C8C5"/>
<path d="M24.4 30.9001H4V6.6001H24.4V30.9001ZM5.2 29.7001H23.3V7.7001H5.2V29.7001Z" fill="#02274C"/>
<path d="M27.5 36H4.5C2 36 0 34.1 0 31.7V4.3C0 1.9 2 0 4.5 0H9V1.2H4.5C2.7 1.2 1.3 2.6 1.3 4.3V31.8C1.3 33.5 2.8 34.9 4.5 34.9H27.6C29.4 34.9 30.8 33.5 30.8 31.8V4.3C30.8 2.6 29.3 1.2 27.6 1.2H10.8V0H27.5C30 0 32 1.9 32 4.3V31.8C32 34.1 30 36 27.5 36Z" fill="#02274C"/>
<path d="M10.2 13.2998V26.5998H12.9L31.6863 4.71471L30.063 1.30615L12.9 21.9998V13.2998" fill="#02274C"/>
<path d="M12.9 20.1953V22.0002L29.5941 2.08117L30.5 1.0002L29.5941 0.437012L28.7953 1.42294L12.9 20.1953Z" fill="white"/>
<path d="M13.8 1H12.6V3.2H13.8V1Z" fill="#02274C"/>
<path d="M28.02 22.9802V24.1802H32.02V22.9802H28.02Z" fill="#02274C"/>
</svg>
