<svg width="120" height="24" viewBox="0 0 120 24" fill="none" xmlns="http://www.w3.org/2000/svg">
<path d="M102.552 8.41985C103.534 8.41985 104.329 7.62391 104.329 6.64206C104.329 5.6602 103.534 4.86426 102.552 4.86426C101.57 4.86426 100.774 5.6602 100.774 6.64206C100.774 7.62391 101.57 8.41985 102.552 8.41985Z" fill="#F2EFE6"/>
<path d="M105.958 9.73371H108.904V11.0835C108.904 11.0835 109.704 9.48438 111.879 9.48438C113.82 9.48438 115.427 10.4404 115.427 13.3543V19.4988H112.374V14.0988C112.374 12.3799 111.456 12.1908 110.757 12.1908C109.306 12.1908 109.057 13.4426 109.057 14.323V19.4988H105.958V9.73371Z" fill="#F2EFE6"/>
<path d="M101.002 9.73367H104.101V19.4988H101.002V9.73367Z" fill="#F2EFE6"/>
<path fill-rule="evenodd" clip-rule="evenodd" d="M3 12C3 16.45 6.25 20.15 10.5 20.9L10.5502 20.8599C10.5334 20.8566 10.5167 20.8533 10.5 20.85V14.5H8.25V12H10.5V10C10.5 7.75 11.95 6.5 14 6.5C14.65 6.5 15.35 6.6 16 6.7V9H14.85C13.75 9 13.5 9.55 13.5 10.25V12H15.9L15.5 14.5H13.5V20.85C13.4833 20.8533 13.4666 20.8566 13.4498 20.8599L13.5 20.9C17.75 20.15 21 16.45 21 12C21 7.05 16.95 3 12 3C7.05 3 3 7.05 3 12Z" fill="#F2EFE6"/>
<path d="M60 21C64.9706 21 69 16.9706 69 12C69 7.02944 64.9706 3 60 3C55.0294 3 51 7.02944 51 12C51 16.9706 55.0294 21 60 21Z" fill="#F2EFE6"/>
<path d="M58.353 16.7473C62.3445 16.7473 64.527 13.4398 64.527 10.5733C64.527 10.4788 64.527 10.3843 64.5225 10.2943C64.9455 9.98834 65.3145 9.60584 65.607 9.16934C65.22 9.34034 64.8015 9.45734 64.3605 9.51134C64.8105 9.24134 65.1525 8.81834 65.3145 8.30984C64.896 8.55734 64.4325 8.73734 63.9375 8.83634C63.5415 8.41334 62.979 8.15234 62.3535 8.15234C61.1565 8.15234 60.1845 9.12434 60.1845 10.3213C60.1845 10.4923 60.2025 10.6588 60.243 10.8163C58.4385 10.7263 56.841 9.86234 55.77 8.54834C55.5855 8.86784 55.4775 9.24134 55.4775 9.63734C55.4775 10.3888 55.86 11.0548 56.445 11.4418C56.0895 11.4328 55.7565 11.3338 55.464 11.1718C55.464 11.1808 55.464 11.1898 55.464 11.1988C55.464 12.2518 56.211 13.1248 57.2055 13.3273C57.0255 13.3768 56.832 13.4038 56.634 13.4038C56.4945 13.4038 56.3595 13.3903 56.2245 13.3633C56.499 14.2273 57.3 14.8528 58.2495 14.8708C57.507 15.4513 56.571 15.7978 55.554 15.7978C55.3785 15.7978 55.2075 15.7888 55.0365 15.7663C55.986 16.3873 57.129 16.7473 58.353 16.7473Z" fill="#163651"/>
</svg>
